<?xml version="1.0" encoding="UTF-8"?>
<svg width="32px" height="32px" viewBox="0 0 32 32" version="1.1" xmlns="http://www.w3.org/2000/svg" xmlns:xlink="http://www.w3.org/1999/xlink">
    <!-- Generator: Sketch 53.2 (72643) - https://sketchapp.com -->
    <title>abstract-logo</title>
    <desc>Created with Sketch.</desc>
    <g id="abstract-logo" stroke="none" stroke-width="1" fill="none" fill-rule="evenodd">
        <g fill-rule="nonzero">
            <path d="M15.9790164,32 C28.7370492,32 31.9265574,28.8 31.9265574,16 C31.9265574,3.2 28.7370492,0 15.9790164,0 C3.22098361,0 0.0314754098,3.2 0.0314754098,16 C0.0314754098,28.8 3.22098361,32 15.9790164,32 L15.9790164,32 Z" id="Shape" fill="#191A1B"></path>
            <polygon id="Path" fill="#FFFFFF" points="24.4511475 24.5 21.4609836 24.5 21.4609836 10.5 7.50688525 10.5 7.50688525 7.5 24.4511475 7.5"></polygon>
            <path d="M13.3623607,24.7494737 C10.8929502,24.7494736 8.66671361,23.2569873 7.7218092,20.9680041 C6.77690479,18.6790209 7.29943043,16.0443534 9.04571732,14.2926232 C10.7920042,12.5408931 13.4181232,12.0171014 15.6994391,12.9655074 C17.980755,13.9139135 19.4679654,16.1477297 19.467541,18.6252632 C19.463493,22.0062985 16.7323113,24.7459935 13.3623607,24.7494737 M13.3623607,15.5 C11.6419846,15.5 10.2473443,16.899228 10.2473443,18.6252632 C10.2473443,20.3512983 11.6419846,21.7505263 13.3623607,21.7505263 C15.0827367,21.7505263 16.477377,20.3512983 16.477377,18.6252632 C16.4750652,16.9001896 15.0817782,15.5023194 13.3623607,15.5" id="Shape" fill="#FFFFFF"></path>
        </g>
    </g>
</svg>