<?xml version="1.0" encoding="UTF-8"?>
<svg width="24px" height="24px" viewBox="0 0 24 24" version="1.1" xmlns="http://www.w3.org/2000/svg" xmlns:xlink="http://www.w3.org/1999/xlink">
    <!-- Generator: Sketch 53.2 (72643) - https://sketchapp.com -->
    <title>checkmark-icon</title>
    <desc>Created with Sketch.</desc>
    <g id="checkmark-icon" stroke="none" stroke-width="1" fill="none" fill-rule="evenodd">
        <g transform="translate(11.714102, 11.129165) rotate(-53.000000) translate(-11.714102, -11.129165) translate(5.214102, 7.129165)" fill="#FFFFFF" id="Group-18">
            <g transform="translate(0.826558, 0.000000)">
                <path d="M3,5 L10.5,5 C11.3284271,5 12,5.67157288 12,6.5 C12,7.32842712 11.3284271,8 10.5,8 L1,8 C0.44771525,8 5.01942049e-14,7.55228475 5.01265696e-14,7 L5.01265696e-14,5 L-1.38777878e-15,1.5 C-1.48923184e-15,0.671572875 0.671572875,1.08103206e-14 1.5,1.0658141e-14 C2.32842712,1.05059614e-14 3,0.671572875 3,1.5 L3,5 Z" id="Combined-Shape"></path>
            </g>
        </g>
    </g>
</svg>