<?xml version="1.0" encoding="UTF-8"?>
<svg width="16px" height="16px" viewBox="0 0 16 16" version="1.1" xmlns="http://www.w3.org/2000/svg" xmlns:xlink="http://www.w3.org/1999/xlink">
    <!-- Generator: Sketch 53.2 (72643) - https://sketchapp.com -->
    <title>Shape</title>
    <desc>Created with Sketch.</desc>
    <g id="App" stroke="none" stroke-width="1" fill="none" fill-rule="evenodd">
        <g id="Comments" transform="translate(-1250.000000, -14.000000)" fill="#010711" fill-rule="nonzero">
            <g id="header">
                <g id="np_settings_1187809_000000" transform="translate(1250.000000, 14.000000)">
                    <path d="M15.7992964,6.19379763 C15.7786658,6.14132598 15.7511599,6.0919759 15.7180271,6.04637425 C15.4298294,5.67719212 14.9809688,5.46979703 14.5127435,5.48853919 L14.4314743,5.48853919 C14.1626572,5.48166792 13.9182301,5.33174633 13.7913194,5.09500185 C13.7781913,5.09625127 13.7675633,5.08563173 13.7688148,5.07251446 C13.6837942,4.92509108 13.608776,4.80390352 13.5224992,4.65647694 L13.5218739,4.65710157 C13.5131219,4.65460288 13.5068703,4.64710682 13.5062452,4.63773734 C13.3630857,4.40411602 13.354959,4.11175755 13.4837405,3.8700125 C13.5049953,3.85564501 13.5193747,3.83315666 13.5237502,3.80754611 C13.7681773,3.39339559 13.8125721,2.89114734 13.6456549,2.44075986 C13.630026,2.38578873 13.6018939,2.33581497 13.5637599,2.29333648 C13.2911979,2.03596763 13.0048727,1.79359891 12.7060484,1.56746166 C12.6660387,1.54809743 12.6210278,1.52748266 12.5622632,1.50499527 L12.5616379,1.50499527 C12.0940208,1.40879618 11.6082873,1.5399769 11.2525692,1.8585536 C11.2294388,1.86480024 11.2088082,1.87916837 11.1938046,1.8985326 C11.0681486,2.00472644 10.9081035,2.06219066 10.7436957,2.05844863 C10.6449214,2.05657457 10.5467681,2.03533596 10.455498,1.99598223 C10.303586,1.93101635 10.1466713,1.87729416 9.98663257,1.83606621 C9.73093871,1.7448645 9.54402949,1.52311055 9.49713815,1.25574696 C9.49276205,1.22763692 9.48526023,1.20015055 9.4746335,1.17391473 C9.41461898,0.696037683 9.12392466,0.277505471 8.69694136,0.0545025785 C8.65380613,0.0295157001 8.60441978,0.0163977889 8.55440768,0.0163977889 C8.1874389,-0.00546592962 7.81922182,-0.00546592962 7.4516449,0.0163977889 C7.4016328,0.0207705326 7.3528706,0.0345130758 7.30785972,0.0563767943 C6.88150057,0.28999811 6.5926787,0.712912021 6.53016758,1.1945311 C6.51266254,1.21077218 6.50453577,1.23388484 6.50766293,1.2569975 C6.4657776,1.52685579 6.27698312,1.75110602 6.01816851,1.83731675 C5.87750888,1.87729576 5.71246256,1.93976215 5.54930308,1.99723277 C5.4542801,2.02034544 5.35800881,2.03346335 5.26110536,2.03721178 C5.09732174,2.03596251 4.93915548,1.97974116 4.81099647,1.87729576 C4.79161738,1.85480837 4.77098679,1.85480837 4.7516077,1.83419359 L4.75223282,1.83419359 C4.39713891,1.51436155 3.91078125,1.38318244 3.44316412,1.48125893 C3.38877657,1.4825082 3.33688881,1.50499687 3.29875479,1.54310166 C2.98930393,1.7561098 2.70110621,1.99849451 2.43917084,2.26771313 C2.40541227,2.31268951 2.37790642,2.362038 2.35790158,2.41513492 C2.18222708,2.86427505 2.22724437,3.37026534 2.47918052,3.78192116 C2.49480942,3.80191066 2.50793787,3.82252544 2.5191902,3.84438756 C2.64797175,4.08675628 2.63921923,4.37785142 2.4973097,4.6121124 C2.48418157,4.61086297 2.47355356,4.62148251 2.47480506,4.63459979 C2.38665893,4.76702944 2.30850883,4.90632909 2.2410045,5.05001364 C2.22850147,5.049389 2.2178741,5.06000839 2.21849985,5.07250103 C2.09847082,5.31549342 1.84965862,5.46854905 1.57834499,5.46603836 L1.49520007,5.46603836 C1.02758295,5.45416956 0.581859115,5.66156768 0.289916488,6.02761546 C0.251782463,6.06946868 0.224275008,6.12006611 0.208647228,6.17441357 C0.110498684,6.55608514 0.0411026952,6.94400942 0.000468864991,7.33567574 C-0.00203173996,7.3900216 0.00547007489,7.44374379 0.0229735093,7.49559176 C0.17488546,7.93536082 0.520597895,8.28143509 0.960704366,8.43385105 C0.988211821,8.43947322 1.01571767,8.44696912 1.04259938,8.45633844 C1.29640478,8.54504226 1.47833679,8.76991777 1.51146481,9.03728136 L1.51146481,9.05976875 L1.51146481,9.05914412 C1.52709355,9.22093116 1.55460004,9.38147085 1.59273407,9.53889219 L1.59273407,9.56137958 C1.63899486,9.82936685 1.54647328,10.1017198 1.34641848,10.2859911 C1.32266233,10.2928625 1.30203334,10.3066058 1.28702971,10.3259701 C0.928815051,10.6151942 0.719388387,11.0493342 0.715643481,11.5090928 C0.720644691,11.5640639 0.734398418,11.6184097 0.75565316,11.6690088 C0.935696716,12.0356962 1.14073832,12.3892545 1.36892152,12.7278287 C1.38767646,12.787172 1.43393725,12.8340226 1.49332602,12.8527631 C1.88591699,13.0726477 2.35665488,13.1026319 2.77363575,12.9339701 C2.80301726,12.9402169 2.83365027,12.9314714 2.85553076,12.9114827 C2.93492437,12.8846216 3.01806608,12.8708784 3.10184635,12.8715037 C3.19186813,12.8715037 3.28064161,12.8871206 3.36440587,12.9183543 C3.45317775,12.952087 3.53631946,12.9995613 3.61072146,13.0589061 L3.97893854,13.3787381 L4.00144318,13.4012255 C4.20712494,13.5723836 4.30777329,13.8384999 4.26713946,14.1033528 C4.25151072,14.1277144 4.24400907,14.1558245 4.24463482,14.1845598 C4.15211323,14.6274472 4.25776295,15.0890768 4.53283254,15.4482641 C4.57284222,15.4926152 4.62160441,15.5275969 4.67661772,15.5500859 C5.04982801,15.7349808 5.44179484,15.8805363 5.84502839,15.9836022 C5.90441715,16.0054659 5.96943288,16.0054659 6.029441,15.9836022 C6.46767502,15.8942747 6.84275776,15.6125491 7.05031197,15.2158774 C7.0653156,15.1965131 7.07844357,15.1758984 7.09032165,15.1540347 C7.21285049,14.9079079 7.47228605,14.761121 7.7461123,14.7829815 L8.25873231,14.7829815 C8.52879765,14.7761102 8.78135474,14.9185359 8.91452296,15.1540347 C8.92952659,15.1733989 8.94328032,15.1940137 8.95453264,15.2158774 C9.16208685,15.6125491 9.53716959,15.8942731 9.97540361,15.9836022 L10.0572986,15.9836022 C10.0798033,15.9836022 10.1166874,15.9836022 10.0910572,15.9405 C10.4874091,15.8168146 10.8762391,15.6712654 11.2557069,15.5038493 C11.311346,15.4819856 11.3607324,15.4463787 11.4001163,15.4014039 C11.6195454,15.1415404 11.7377019,14.8110899 11.7345652,14.4706447 C11.7345652,14.3731951 11.7245628,14.2757391 11.7058078,14.1801733 C11.7089335,14.1370711 11.7008066,14.0939689 11.6833032,14.0552389 C11.6501704,13.792257 11.7595712,13.5317698 11.9715009,13.3724774 C11.9502462,13.351239 11.9821286,13.3187552 12.0033838,13.3406189 C12.1346652,13.2444199 12.2578134,13.1369819 12.3716009,13.0207869 L12.3941055,13.0207869 C12.5278883,12.8989757 12.7023081,12.832134 12.8836,12.8333813 C12.9436145,12.8327567 13.0030032,12.8402527 13.0611469,12.8558687 C13.0849031,12.8608661 13.1080335,12.8683621 13.129914,12.8783561 C13.1580456,12.8833535 13.1849273,12.8908495 13.211809,12.9008435 C13.2993309,12.932702 13.3887318,12.9583141 13.480626,12.9758041 C13.5743991,12.9945447 13.6700478,13.0039142 13.765687,13.0045394 C14.0232533,13.0070383 14.2776828,12.942073 14.5033694,12.8171339 L14.6283997,12.6921995 L14.6277746,12.6928241 C14.8684568,12.36175 15.0735144,12.0069283 15.2410429,11.6340041 C15.266049,11.5846556 15.2798027,11.5296845 15.2810526,11.4740881 C15.2729257,11.0149532 15.0641201,10.5826842 14.7096664,10.2909654 C14.6902873,10.2716012 14.6696567,10.2509864 14.6502776,10.228499 C14.4627282,10.0723314 14.3695857,9.8299563 14.403962,9.58883492 L14.403962,9.56447331 C14.442096,9.40705518 14.4696035,9.24651229 14.485857,9.08472525 L14.485857,9.06723363 C14.5640007,8.59373828 14.9147128,8.47567229 14.9559708,8.47567229 C14.9884778,8.48191893 15.0216122,8.47129954 15.0441169,8.44693698 C15.4823509,8.29701571 15.8261781,7.95345212 15.9768385,7.51617775 C15.9943436,7.46495505 16.0024703,7.41060759 15.9993432,7.35626173 C15.9649604,6.96397174 15.8980691,6.57480011 15.7992948,6.19375221 L15.7992964,6.19379763 Z M8.00237013,11.3717185 C7.13028716,11.3792146 6.29075606,11.039397 5.66932572,10.4272225 C5.04792739,9.81567164 4.69534609,8.98172558 4.68971273,8.11035917 C4.68408641,7.23832111 5.02542595,6.40069698 5.63869431,5.78038273 C6.25258682,5.16070815 7.08717273,4.81026818 7.95989586,4.80588648 C8.83197883,4.80151389 9.67038966,5.14446068 10.2898995,5.75850622 C10.9088013,6.37255176 11.2582618,7.20774516 11.2607584,8.07920752 C11.2688853,8.94875089 10.9294302,9.78519164 10.3174102,10.4035869 C9.70601428,11.0213905 8.87269268,11.3699594 8.00245015,11.3718304 L8.00237013,11.3717185 Z" id="Shape"></path>
                </g>
            </g>
        </g>
    </g>
</svg>